<svg xmlns="http://www.w3.org/2000/svg" version="1.1" viewBox="-5.0 -10.0 110.0 135.0">
 <path d="m50.469 48.816c-0.97656 0-1.7734 0.77734-1.7734 1.7344s0.79688 1.7344 1.7734 1.7344 1.7734-0.77734 1.7734-1.7344-0.79688-1.7344-1.7734-1.7344zm0 2.3438c-0.3125 0-0.57031-0.27344-0.57031-0.60938 0-0.33594 0.25781-0.60938 0.57031-0.60938s0.57031 0.27344 0.57031 0.60938c0 0.33594-0.25781 0.60938-0.57031 0.60938z"/>
 <path d="m57.102 48.816c-0.97656 0-1.7734 0.77734-1.7734 1.7344s0.79688 1.7344 1.7734 1.7344c0.97656 0 1.7734-0.77734 1.7734-1.7344s-0.79297-1.7344-1.7734-1.7344zm0 2.3438c-0.3125 0-0.57031-0.27344-0.57031-0.60938 0-0.33594 0.25391-0.60938 0.57031-0.60938 0.3125 0 0.57031 0.27344 0.57031 0.60938 0 0.33594-0.25391 0.60938-0.57031 0.60938z"/>
 <path d="m43.832 48.816c-0.97656 0-1.7734 0.77734-1.7734 1.7344s0.79688 1.7344 1.7734 1.7344c0.97656 0 1.7734-0.77734 1.7734-1.7344s-0.79688-1.7344-1.7734-1.7344zm0 2.3438c-0.3125 0-0.57031-0.27344-0.57031-0.60938 0-0.33594 0.25391-0.60938 0.57031-0.60938 0.3125 0 0.57031 0.27344 0.57031 0.60938 0 0.33594-0.25781 0.60938-0.57031 0.60938z"/>
 <path d="m55.289 62.668c-0.31641-0.5625-0.90234-0.9375-1.5586-1l-1.0703-0.10156-0.61328-0.79688c-0.37891-0.49219-0.96094-0.77344-1.5977-0.77344-0.63281 0-1.2148 0.28125-1.5977 0.77344l-0.61328 0.79688-1.0703 0.10156c-0.66016 0.0625-1.2422 0.43359-1.5586 1-0.30469 0.54297-0.32812 1.1992-0.054687 1.7578l0.40625 0.83594-0.40625 0.83594c-0.26953 0.55859-0.25 1.2188 0.054687 1.7578 0.31641 0.5625 0.90234 0.9375 1.5586 1l1.0703 0.10156 0.61328 0.79688c0.37891 0.49219 0.96094 0.77734 1.5977 0.77734 0.63281 0 1.2148-0.28125 1.5977-0.77734l0.61328-0.79688 1.0703-0.10156c0.66016-0.0625 1.2422-0.4375 1.5586-1 0.30469-0.54297 0.32422-1.1992 0.054688-1.7578l-0.40625-0.83594 0.40625-0.83594c0.27344-0.55859 0.25391-1.2188-0.054688-1.7578zm-2.7031 3.1016 0.38672 0.80078-1.0391 0.097657c-0.32422 0.03125-0.62109 0.19141-0.82031 0.44922l-0.66797 0.86328-0.66797-0.86719c-0.19922-0.25781-0.49609-0.42188-0.82031-0.44922l-1.0352-0.097656 0.38672-0.80078c0.15625-0.32422 0.15625-0.69922 0-1.0195l-0.38672-0.80078 1.0352-0.097656c0.32422-0.03125 0.62109-0.19141 0.82031-0.44922l0.66797-0.86719 0.66797 0.86328c0.19922 0.25781 0.49609 0.42188 0.82031 0.44922l1.0391 0.097656-0.38672 0.80078c-0.15625 0.32812-0.15625 0.70703 0 1.0273z"/>
 <path d="m40.223 62.664c-0.31641-0.5625-0.90234-0.9375-1.5586-1l-1.0703-0.10156-0.61328-0.79688c-0.76172-0.98438-2.4297-0.98438-3.1953 0l-0.61328 0.79688-1.0703 0.10156c-0.66016 0.0625-1.2422 0.4375-1.5625 1-0.30469 0.54297-0.32422 1.1992-0.054687 1.7578l0.40625 0.83594-0.40625 0.83594c-0.26953 0.55859-0.25 1.2188 0.054687 1.7578 0.31641 0.5625 0.90234 0.9375 1.5625 1l1.0703 0.10156 0.61328 0.79688c0.37891 0.49219 0.96094 0.77344 1.5977 0.77344 0.63281 0 1.2188-0.28125 1.5977-0.77734l0.61328-0.79688 1.0703-0.10156c0.66016-0.0625 1.2422-0.43359 1.5586-1 0.30469-0.54297 0.32812-1.1992 0.054688-1.7578l-0.40625-0.83594 0.40625-0.83594c0.27344-0.55078 0.25-1.2109-0.054688-1.7539zm-2.707 3.1055 0.38672 0.80078-1.0352 0.097657c-0.32422 0.03125-0.62109 0.19141-0.82031 0.44922l-0.66797 0.86328-0.66797-0.86328c-0.19922-0.25781-0.49609-0.42188-0.82031-0.44922l-1.0391-0.097657 0.38672-0.80078c0.15625-0.32422 0.15625-0.69922 0-1.0234l-0.38672-0.80078 1.0391-0.097656c0.32422-0.03125 0.62109-0.19141 0.82031-0.44922l0.66797-0.86328 0.66797 0.86328c0.19922 0.25781 0.49609 0.42187 0.82031 0.44922l1.0352 0.097656-0.38672 0.80078c-0.15625 0.32422-0.15625 0.70312 0 1.0234z"/>
 <path d="m69.562 62.668c-0.31641-0.5625-0.90234-0.9375-1.5586-1l-1.0703-0.10156-0.61328-0.79688c-0.37891-0.49219-0.96094-0.77344-1.5977-0.77344-0.63281 0-1.2148 0.28125-1.5977 0.77344l-0.61328 0.79688-1.0703 0.10156c-0.66016 0.0625-1.2422 0.43359-1.5586 1-0.30469 0.54297-0.32812 1.1992-0.054687 1.7578l0.40625 0.83594-0.40625 0.83594c-0.26953 0.55859-0.25 1.2188 0.054687 1.7578 0.31641 0.5625 0.90234 0.9375 1.5586 1l1.0703 0.10156 0.61328 0.79688c0.37891 0.49219 0.96094 0.77734 1.5977 0.77734 0.63281 0 1.2148-0.28125 1.5977-0.77734l0.61328-0.79688 1.0703-0.10156c0.66016-0.0625 1.2422-0.4375 1.5586-1 0.30469-0.54297 0.32422-1.1992 0.054688-1.7578l-0.40625-0.83594 0.40625-0.83594c0.26953-0.55859 0.25-1.2188-0.054688-1.7578zm-2.707 3.1016 0.38672 0.80078-1.0391 0.097657c-0.32422 0.03125-0.62109 0.19141-0.82031 0.44922l-0.66797 0.86328-0.66797-0.86719c-0.19922-0.25781-0.49609-0.42188-0.82031-0.44922l-1.0352-0.097656 0.38672-0.80078c0.15625-0.32422 0.15625-0.69922 0-1.0195l-0.38672-0.80078 1.0352-0.097656c0.32422-0.03125 0.62109-0.19141 0.82031-0.44922l0.66797-0.86719 0.66797 0.86328c0.19922 0.25781 0.49609 0.42188 0.82031 0.44922l1.0391 0.097656-0.38672 0.80078c-0.15625 0.32812-0.15625 0.70703 0 1.0273z"/>
 <path d="m57.172 64.172c-0.14062 0.0625-0.26562 0.15625-0.375 0.26562-0.21875 0.21875-0.34375 0.51562-0.34375 0.82812 0 0.15625 0.03125 0.29688 0.09375 0.4375 0.046875 0.15625 0.14062 0.28125 0.25 0.39062s0.23438 0.1875 0.375 0.25 0.29688 0.09375 0.45312 0.09375c0.3125 0 0.60938-0.125 0.82812-0.34375 0.10938-0.10938 0.1875-0.25 0.25-0.39062s0.09375-0.28125 0.09375-0.4375c0-0.3125-0.125-0.60938-0.34375-0.82812-0.32812-0.32812-0.84375-0.4375-1.2812-0.26562z"/>
 <path d="m70.422 65.266c0 0.15625 0.03125 0.29688 0.09375 0.4375 0.0625 0.15625 0.14062 0.28125 0.25 0.39062s0.23438 0.1875 0.39062 0.25c0.14062 0.0625 0.28125 0.09375 0.4375 0.09375s0.3125-0.03125 0.45312-0.09375 0.26562-0.14062 0.375-0.25 0.20312-0.23438 0.25-0.39062c0.0625-0.14062 0.09375-0.28125 0.09375-0.4375 0-0.3125-0.125-0.60938-0.34375-0.82812-0.4375-0.45312-1.2188-0.4375-1.6562 0-0.21875 0.20312-0.34375 0.51562-0.34375 0.82812z"/>
 <path d="m29.234 64.438c-0.42188-0.4375-1.2188-0.4375-1.6562 0-0.21875 0.21875-0.34375 0.51562-0.34375 0.82812 0 0.29688 0.125 0.60938 0.34375 0.82812s0.51562 0.34375 0.82812 0.34375 0.60938-0.125 0.82812-0.34375 0.34375-0.51562 0.34375-0.82812c0-0.15625-0.03125-0.3125-0.09375-0.45312s-0.14062-0.26562-0.25-0.375z"/>
 <path d="m42.031 64.438c-0.21875 0.21875-0.34375 0.51562-0.34375 0.82812 0 0.29688 0.125 0.60938 0.34375 0.82812s0.51562 0.34375 0.82812 0.34375 0.60938-0.125 0.82812-0.34375 0.34375-0.53125 0.34375-0.82812c0-0.3125-0.125-0.60938-0.34375-0.82812-0.4375-0.4375-1.2188-0.4375-1.6562 0z"/>
 <path d="m77.012 30.891c0.19531-0.65234 0.09375-1.3594-0.27344-1.9336-0.37891-0.59375-1.0039-0.99609-1.7148-1.0977-1.8086-0.26172-4.5234-0.37109-7.2188 0.61328-0.85156 0.3125-1.5469 0.60938-2.125 0.88281 0.023437-0.44141 0.015624-0.82812-0.011719-1.1562-0.050781-0.63672-0.35156-1.2109-0.84766-1.6211-0.50781-0.41797-1.1875-0.61328-1.8477-0.53906-0.33594 0.039063-0.75781 0.11719-1.2148 0.22656 0.13672-0.67969 0.16016-1.457-0.035156-2.3398-0.35938-1.6133-2.1641-3.5273-5.6836-6.0273-3.0859-2.1914-5.0547-5.0352-5.0742-5.0664-0.015625-0.023437-0.042969-0.03125-0.058594-0.050781-0.21484-0.27344-0.53125-0.46094-0.90625-0.46094s-0.69141 0.1875-0.90625 0.46094c-0.015625 0.019531-0.042969 0.027344-0.058594 0.050781-0.019531 0.027344-1.9883 2.875-5.0742 5.0664-3.5195 2.5-5.3242 4.4141-5.6836 6.0273-0.19531 0.88281-0.17188 1.6602-0.035156 2.3398-0.46094-0.10938-0.87891-0.1875-1.2148-0.22656-0.66406-0.074218-1.3398 0.12109-1.8477 0.53906-0.49609 0.41016-0.79688 0.98438-0.84766 1.6211-0.027343 0.32812-0.035156 0.71484-0.011719 1.1562-0.57812-0.27344-1.2734-0.57422-2.125-0.88281-2.6953-0.98438-5.4102-0.875-7.2148-0.61328-0.71094 0.10156-1.332 0.50391-1.7148 1.0977-0.36719 0.57422-0.46875 1.2812-0.27344 1.9336 0.44531 1.5039 1.3594 3.6914 3.1758 5.5586 2.3477 2.4141 5.2305 3.7461 7.1133 4.4141-0.28125 0.49609-0.45703 1.0625-0.45703 1.6758v0.35938c0 1.4297 0.88672 2.6562 2.1367 3.1641v1.3086c0 1.2109-0.64453 2.3242-1.7188 2.9805-3.2812 2-8.7891 6.6484-8.7891 15.305 0 3.7656 1.0625 6.8125 2.5312 9.2344 0.0625 0.15625 0.15234 0.29688 0.26953 0.41406 2.6328 4.0742 6.3594 6.2617 7.8125 7v1.4336c0 2.1758 1.7695 3.9453 3.9453 3.9453h21.988c2.1758 0 3.9453-1.7695 3.9453-3.9453v-1.4336c1.4531-0.73438 5.1797-2.9258 7.8125-7 0.11719-0.11719 0.20703-0.25781 0.26953-0.41406 1.4688-2.4219 2.5312-5.4688 2.5312-9.2344 0-8.6562-5.5078-13.305-8.7891-15.305-1.0781-0.65625-1.7188-1.7695-1.7188-2.9805v-1.3086c1.25-0.50781 2.1367-1.7305 2.1367-3.1641v-0.35938c0-0.61328-0.17578-1.1797-0.45703-1.6758 1.8789-0.66797 4.7656-2 7.1133-4.4141 1.8086-1.8672 2.7188-4.0508 3.168-5.5586zm-13.68-2.5039c0.082031 1.0234-0.066406 2.7812-1.2344 5.3555-1.2773 2.8164-3.3789 4.7578-4.1172 5.3828h-6.3438c0.64844-1.707 1.918-4.5078 3.8398-6.418 3.4297-3.3984 6.3359-4.1758 7.8555-4.3203zm0.43359 13.082c0.58984 0 1.0742 0.48047 1.0742 1.0703v0.35938c0 0.58984-0.48047 1.0742-1.0742 1.0742l-27.531-0.003906c-0.58984 0-1.0742-0.48047-1.0742-1.0742v-0.35938c0-0.58984 0.48047-1.0703 1.0742-1.0703zm-5.4688-13.84c-0.007813 0.003906-0.011719 0.011719-0.019531 0.019532-1.3555 0.75-2.8633 1.8203-4.4492 3.3945-0.30859 0.30469-0.59375 0.62891-0.87109 0.96484 0.042969-0.16406 0.082031-0.32422 0.12891-0.48828 0.78516-2.9648 2.9688-7.5781 4.0625-9.8047 1.8203 1.5586 2.2109 2.3867 2.2812 2.7188 0.45312 2.0156-0.96094 3.0781-1.1328 3.1953zm-3.6133-7.8203c0.21484 0.15234 0.38281 0.28516 0.58203 0.42969-0.92188 1.8477-3.0078 6.1758-4.0938 9.5156v-13.031c0.92188 0.97266 2.0938 2.0781 3.5117 3.0859zm-5.8555-3.0859v13.031c-1.0859-3.3398-3.1719-7.668-4.0938-9.5156 0.19531-0.14453 0.36719-0.27734 0.58203-0.42969 1.418-1.0078 2.5898-2.1133 3.5117-3.0859zm-7.125 10.91c-0.16406-0.11328-1.5859-1.1758-1.1367-3.1992 0.074219-0.33203 0.46094-1.1562 2.2812-2.7188 1.0977 2.2266 3.2773 6.8398 4.0625 9.8047 0.042969 0.16406 0.085938 0.32422 0.12891 0.48828-0.27734-0.33203-0.5625-0.66016-0.87109-0.96484-1.5859-1.5742-3.0938-2.6445-4.4492-3.3945-0.003906-0.003907-0.007812-0.011719-0.015625-0.015626zm-4.9414 0.73438c1.4258 0.16406 4.332 0.94141 7.7578 4.3398 1.9141 1.9023 3.1875 4.707 3.8398 6.418h-6.3438c-0.73828-0.625-2.8398-2.5625-4.1172-5.3828-1.1641-2.5742-1.3125-4.332-1.1367-5.375zm-11.445 1.8125c1.2578-0.18359 3.7188-0.36328 6.0742 0.49609 2.0742 0.76172 3.1133 1.4102 3.4883 1.6758 0.21484 0.71875 0.5 1.5 0.88672 2.3555 0.82812 1.832 1.9414 3.3164 2.9219 4.4141h-2.4531c-0.16016 0-0.3125 0.027344-0.46875 0.046875-0.019531-0.003907-0.03125-0.019531-0.050781-0.023438-0.046875-0.011719-4.6445-1.0117-7.875-4.332-1.4766-1.5234-2.2305-3.3359-2.5234-4.6328zm37.277 53.555c0 0.88281-0.71875 1.6016-1.6016 1.6016h-21.984c-0.88281 0-1.6016-0.71875-1.6016-1.6016v-1.0508h25.188zm1.0312-3.3945h-27.246c-0.76172-0.35547-3.6094-1.8203-6.0039-4.7031h39.297c-2.3906 2.8945-5.25 4.3398-6.0469 4.7031zm7.6562-7.0469h-42.531c-1.1523-2.0391-1.957-4.5664-1.957-7.6406 0-3.5938 1.1055-6.3867 2.5625-8.5234h41.293c1.4609 2.1367 2.5625 4.9297 2.5625 8.5234 0 3.082-0.79297 5.6055-1.9297 7.6406zm-5.7383-20.941c0.91797 0.55859 2.0391 1.3633 3.1367 2.4375l-37.359-0.003906c1.0977-1.0742 2.2148-1.875 3.1367-2.4375 1.7812-1.0859 2.8438-2.9492 2.8438-4.9844v-1.0547h25.398v1.0547c0 2.0391 1.0625 3.9023 2.8438 4.9883zm-1.2617-13.203c-0.019531 0.003906-0.03125 0.015624-0.050781 0.023437-0.15234-0.019531-0.30859-0.046875-0.46875-0.046875h-2.4531c0.98047-1.0977 2.0938-2.582 2.9219-4.4141 0.38672-0.85547 0.67188-1.6367 0.88672-2.3555 0.39062-0.27734 1.4297-0.92188 3.4883-1.6797 2.3516-0.85938 4.8164-0.67969 6.1523-0.44922-0.37109 1.2539-1.125 3.0664-2.6094 4.5898-3.2188 3.3203-7.8203 4.3242-7.8672 4.332z"/></svg>